<svg width="56" height="48" viewBox="0 0 56 48" fill="none" xmlns="http://www.w3.org/2000/svg">
<path d="M16.636 1.17812C17.7188 2.15156 17.8063 3.80312 16.8329 4.88594L8.95791 13.6359C8.47666 14.1719 7.79854 14.4891 7.07666 14.5C6.35479 14.5109 5.66572 14.2375 5.15166 13.7344L0.765723 9.35937C-0.251465 8.33125 -0.251465 6.66875 0.765723 5.64062C1.78291 4.6125 3.45635 4.6125 4.47354 5.64062L6.89072 8.05781L12.9173 1.36406C13.8907 0.281248 15.5423 0.193748 16.6251 1.16719L16.636 1.17812ZM16.636 18.6781C17.7188 19.6516 17.8063 21.3031 16.8329 22.3859L8.95791 31.1359C8.47666 31.6719 7.79854 31.9891 7.07666 32C6.35479 32.0109 5.66572 31.7375 5.15166 31.2344L0.765723 26.8594C-0.262402 25.8312 -0.262402 24.1687 0.765723 23.1516C1.79385 22.1344 3.45635 22.1234 4.47354 23.1516L6.89072 25.5688L12.9173 18.875C13.8907 17.7922 15.5423 17.7047 16.6251 18.6781H16.636ZM24.5001 7.5C24.5001 5.56406 26.0642 4 28.0001 4H52.5001C54.436 4 56.0001 5.56406 56.0001 7.5C56.0001 9.43594 54.436 11 52.5001 11H28.0001C26.0642 11 24.5001 9.43594 24.5001 7.5ZM24.5001 25C24.5001 23.0641 26.0642 21.5 28.0001 21.5H52.5001C54.436 21.5 56.0001 23.0641 56.0001 25C56.0001 26.9359 54.436 28.5 52.5001 28.5H28.0001C26.0642 28.5 24.5001 26.9359 24.5001 25ZM17.5001 42.5C17.5001 40.5641 19.0642 39 21.0001 39H52.5001C54.436 39 56.0001 40.5641 56.0001 42.5C56.0001 44.4359 54.436 46 52.5001 46H21.0001C19.0642 46 17.5001 44.4359 17.5001 42.5ZM5.2501 37.25C6.64248 37.25 7.97784 37.8031 8.96241 38.7877C9.94697 39.7723 10.5001 41.1076 10.5001 42.5C10.5001 43.8924 9.94697 45.2277 8.96241 46.2123C7.97784 47.1969 6.64248 47.75 5.2501 47.75C3.85771 47.75 2.52235 47.1969 1.53779 46.2123C0.553221 45.2277 9.7625e-05 43.8924 9.7625e-05 42.5C9.7625e-05 41.1076 0.553221 39.7723 1.53779 38.7877C2.52235 37.8031 3.85771 37.25 5.2501 37.25Z" fill="#22BEDD"/>
</svg>
